<?xml version="1.0" standalone="no"?>
<!DOCTYPE svg PUBLIC "-//W3C//DTD SVG 1.0//EN" "http://www.w3.org/TR/2001/REC-SVG-20010904/DTD/svg10.dtd">
<svg xmlns="http://www.w3.org/2000/svg" xmlns:xlink="http://www.w3.org/1999/xlink" id="body_1" width="20" height="17">

<defs>
    <clipPath  id="1">

    <path id=""  clip-rule="evenodd" transform="matrix(1 0 0 1 0 0)"  d="M15 -0.5L15 13L15 13L0 13L0 13L0 -0.5L0 -0.5L15 -0.5z" />    </clipPath>
</defs>

<g transform="matrix(1.3333 0 0 1.3333 0 0)">
	<g clip-path="url(#1)" >
    <path id=""  transform="matrix(1 0 0 -1 0 13)"  d="M7.500003 12.749995L7.500003 12.749995L7.500003 12.749995L7.500003 0.7499962" stroke="#000000" stroke-width="1.4999999" fill="none" />
    <path id=""  transform="matrix(1 0 0 -1 0 13)"  d="M7.500003 0.7499962L7.500003 0.7499962L7.500003 0.7499962L1.4533105 6.796689" stroke="#000000" stroke-width="1.4999999" fill="none" />
    <path id=""  transform="matrix(1 0 0 -1 0 13)"  d="M7.500003 0.7499962L7.500003 0.7499962L7.500003 0.7499962L13.546696 6.796689" stroke="#000000" stroke-width="1.4999999" fill="none" />
	</g>
</g>
</svg>